<?xml version="1.0" encoding="UTF-8" standalone="no"?>
<svg
   height="300px"
   width="300px"
   fill="#000000"
   version="1.1"
   x="0px"
   y="0px"
   viewBox="0 0 128 128"
   style="enable-background:new 0 0 128 128;"
   xml:space="preserve"
   id="svg30"
   sodipodi:docname="drums.svg"
   inkscape:version="1.1 (c68e22c387, 2021-05-23)"
   xmlns:inkscape="http://www.inkscape.org/namespaces/inkscape"
   xmlns:sodipodi="http://sodipodi.sourceforge.net/DTD/sodipodi-0.dtd"
   xmlns:xlink="http://www.w3.org/1999/xlink"
   xmlns="http://www.w3.org/2000/svg"
   xmlns:svg="http://www.w3.org/2000/svg"><defs
     id="defs34"><linearGradient
       inkscape:collect="always"
       id="linearGradient3292"><stop
         style="stop-color:#fa8d14;stop-opacity:1"
         offset="0"
         id="stop3284" /><stop
         style="stop-color:#b0177e;stop-opacity:1"
         offset="0.52442485"
         id="stop3286" /><stop
         style="stop-color:#115dcc;stop-opacity:1"
         offset="0.81400055"
         id="stop3288" /><stop
         style="stop-color:#10a358;stop-opacity:1"
         offset="1"
         id="stop3290" /></linearGradient><linearGradient
       inkscape:collect="always"
       id="linearGradient885"><stop
         style="stop-color:#fa8d14;stop-opacity:1"
         offset="0"
         id="stop881" /><stop
         style="stop-color:#b0177e;stop-opacity:1"
         offset="0.58599031"
         id="stop1565" /><stop
         style="stop-color:#115dcc;stop-opacity:1"
         offset="0.81400055"
         id="stop1887" /><stop
         style="stop-color:#10a358;stop-opacity:1"
         offset="1"
         id="stop883" /></linearGradient><radialGradient
       inkscape:collect="always"
       xlink:href="#linearGradient885"
       id="radialGradient1017"
       cx="33.094608"
       cy="100.1714"
       fx="33.094608"
       fy="100.1714"
       r="47"
       gradientTransform="matrix(2.024377,0.47032524,-0.63743472,2.7436507,17.856847,-172.21921)"
       gradientUnits="userSpaceOnUse" /><radialGradient
       inkscape:collect="always"
       xlink:href="#linearGradient3292"
       id="radialGradient3282"
       gradientUnits="userSpaceOnUse"
       gradientTransform="matrix(2.024377,0.47032524,-0.63743472,2.7436507,17.856847,-172.21921)"
       cx="33.094608"
       cy="100.1714"
       fx="33.094608"
       fy="100.1714"
       r="47" /></defs><sodipodi:namedview
     id="namedview32"
     pagecolor="#505050"
     bordercolor="#eeeeee"
     borderopacity="1"
     inkscape:pageshadow="0"
     inkscape:pageopacity="0"
     inkscape:pagecheckerboard="0"
     showgrid="false"
     inkscape:zoom="1.5362984"
     inkscape:cx="36.125795"
     inkscape:cy="175.74711"
     inkscape:window-width="1920"
     inkscape:window-height="1011"
     inkscape:window-x="0"
     inkscape:window-y="0"
     inkscape:window-maximized="1"
     inkscape:current-layer="svg30" /><g
     id="g28"
     style="fill-opacity:1;fill:url(#radialGradient1017)"><g
       id="g6"
       style="fill-opacity:1;fill:url(#radialGradient1017)"><path
         d="M55,10.001c-1.225,0-2.363,0.37-3.314,1.003L24.342,1.061c-0.109-0.04-0.225-0.06-0.342-0.06    c-1.899,0-3.464,0.99-3.895,2.462c-0.213,0.728-0.409,2.61,2.357,4.38c0.059,0.038,0.122,0.069,0.188,0.094l26.678,10.004    c0.809,2.358,3.043,4.06,5.672,4.06c3.309,0,6-2.691,6-6S58.309,10.001,55,10.001z"
         id="path2"
         style="fill-opacity:1;fill:url(#radialGradient1017)" /><path
         d="M107.896,3.464c-0.431-1.473-1.996-2.463-3.895-2.463c-0.117,0-0.232,0.021-0.342,0.06l-27.344,9.943    c-0.95-0.632-2.089-1.003-3.314-1.003c-3.309,0-6,2.691-6,6s2.691,6,6,6c2.629,0,4.863-1.702,5.672-4.06l26.678-10.004    c0.066-0.025,0.128-0.056,0.188-0.094C108.306,6.074,108.109,4.191,107.896,3.464z"
         id="path4"
         style="fill-opacity:1;fill:url(#radialGradient1017)" /></g><g
       id="g26"
       style="fill-opacity:1;fill:url(#radialGradient1017)"><path
         d="M100,121.001H28c-1.103,0-2,0.897-2,2s0.897,2,2,2h72c1.103,0,2-0.897,2-2S101.103,121.001,100,121.001z"
         id="path8"
         style="fill-opacity:1;fill:url(#radialGradient1017)" /><path
         d="M28.596,119.001h70.808c1.365-2.45,2.644-5.143,3.821-8h-78.45C25.952,113.858,27.231,116.551,28.596,119.001z"
         id="path10"
         style="fill-opacity:1;fill:url(#radialGradient1017)" /><path
         d="M31,37.001c1.375,0,2.141-0.409,3.028-0.882c0.981-0.524,2.094-1.118,3.969-1.118c1.873,0,2.988,0.594,3.971,1.117    c0.89,0.474,1.658,0.883,3.032,0.883c1.298,0,1.762-0.339,2.403-0.808c0.728-0.531,1.633-1.192,3.583-1.192    c1.949,0,2.86,0.66,3.593,1.19c0.625,0.453,1.12,0.81,2.42,0.81c1.374,0,2.137-0.409,3.02-0.881    c0.979-0.524,2.089-1.119,3.964-1.119c1.874,0,2.991,0.593,3.977,1.117c0.893,0.474,1.663,0.883,3.039,0.883    c1.298,0,1.761-0.338,2.402-0.807c0.727-0.531,1.631-1.193,3.583-1.193c1.948,0,2.86,0.66,3.593,1.189    c0.626,0.453,1.121,0.811,2.422,0.811c1.375,0,2.137-0.409,3.02-0.881c0.979-0.524,2.088-1.119,3.965-1.119    c1.876,0,2.992,0.593,3.977,1.117c0.891,0.474,1.661,0.883,3.038,0.883c1.377,0,2.143-0.409,3.029-0.882    c0.966-0.516,2.059-1.099,3.883-1.117l-2.831-6.606c-0.462-1.376-1.751-2.394-2.964-2.394H30c-1.257,0-2.625,1.039-3.051,2.316    l-2.861,6.685c1.822,0.018,2.916,0.602,3.883,1.117C28.858,36.592,29.625,37.001,31,37.001z M97,30.001c1.105,0,2,0.895,2,2    s-0.895,2-2,2s-2-0.895-2-2S95.895,30.001,97,30.001z M84,30.001c1.105,0,2,0.895,2,2s-0.895,2-2,2s-2-0.895-2-2    S82.895,30.001,84,30.001z M71,30.001c1.105,0,2,0.895,2,2s-0.895,2-2,2s-2-0.895-2-2S69.895,30.001,71,30.001z M57,30.001    c1.105,0,2,0.895,2,2s-0.895,2-2,2s-2-0.895-2-2S55.895,30.001,57,30.001z M44,30.001c1.105,0,2,0.895,2,2s-0.895,2-2,2    s-2-0.895-2-2S42.895,30.001,44,30.001z M31,30.001c1.105,0,2,0.895,2,2s-0.895,2-2,2s-2-0.895-2-2S29.895,30.001,31,30.001z"
         id="path12"
         style="fill-opacity:1;fill:url(#radialGradient1017)" /><path
         d="M23.97,109.001h80.059c0.992-2.574,1.897-5.258,2.705-8h-85.47C22.073,103.743,22.979,106.427,23.97,109.001z"
         id="path14"
         style="fill-opacity:1;fill:url(#radialGradient1017)" /><path
         d="M67,68.524v2.181c2.413,1.153,4,3.589,4,6.296c0,3.859-3.14,7-7,7s-7-3.141-7-7c0-2.707,1.587-5.143,4-6.296v-2.181    c-3.538,1.257-6,4.64-6,8.477c0,4.963,4.038,9,9,9s9-4.037,9-9C73,73.164,70.538,69.78,67,68.524z"
         id="path16"
         style="fill-opacity:1;fill:url(#radialGradient1017)" /><path
         d="M64,57.001c-5.514,0-10,4.486-10,10c0,1.37,0.295,2.706,0.833,3.949c1.424-2.153,3.587-3.794,6.167-4.527v-0.422    c0-1.654,1.346-3,3-3s3,1.346,3,3v0.422c2.58,0.733,4.743,2.374,6.167,4.527C73.705,69.707,74,68.371,74,67.001    C74,61.487,69.514,57.001,64,57.001z"
         id="path18"
         style="fill-opacity:1;fill:url(#radialGradient1017)" /><path
         d="M102.532,37.196c-0.573,0.164-1.048,0.413-1.561,0.687c-0.981,0.524-2.094,1.118-3.971,1.118    c-1.876,0-2.992-0.593-3.977-1.117c-0.891-0.474-1.661-0.883-3.038-0.883c-1.375,0-2.137,0.409-3.02,0.881    c-0.979,0.524-2.088,1.119-3.965,1.119c-1.948,0-2.86-0.66-3.593-1.189c-0.626-0.453-1.121-0.811-2.422-0.811    c-1.298,0-1.761,0.338-2.402,0.807c-0.727,0.531-1.631,1.193-3.583,1.193c-1.874,0-2.991-0.593-3.977-1.117    c-0.893-0.474-1.663-0.883-3.039-0.883c-1.374,0-2.137,0.409-3.02,0.881c-0.979,0.524-2.089,1.119-3.964,1.119    c-1.949,0-2.86-0.66-3.593-1.19c-0.625-0.453-1.12-0.81-2.42-0.81c-1.298,0-1.762,0.339-2.403,0.808    C47.855,38.34,46.95,39.001,45,39.001c-1.873,0-2.988-0.594-3.972-1.117c-0.889-0.474-1.658-0.883-3.031-0.883    c-1.375,0-2.141,0.409-3.028,0.882c-0.981,0.524-2.094,1.118-3.969,1.118c-1.875,0-2.988-0.594-3.971-1.118    c-0.513-0.274-0.989-0.523-1.561-0.687C20.391,47.963,17,62.636,17,74.001c0,7.686,1.377,16.542,3.701,25h86.598    c2.324-8.458,3.701-17.314,3.701-25C111,62.635,107.609,47.963,102.532,37.196z M75,77.001c0,6.065-4.935,11-11,11    s-11-4.935-11-11c0-1.346,0.252-2.646,0.707-3.853C52.593,71.288,52,69.176,52,67.001c0-6.617,5.383-12,12-12s12,5.383,12,12    c0,2.175-0.593,4.287-1.707,6.147C74.748,74.355,75,75.655,75,77.001z"
         id="path20"
         style="fill-opacity:1;fill:url(#radialGradient3282)" /><path
         d="M65,72.001v-6c0-0.552-0.449-1-1-1s-1,0.448-1,1v6c0,0.552,0.449,1,1,1S65,72.553,65,72.001z"
         id="path22"
         style="fill-opacity:1;fill:url(#radialGradient1017)" /><path
         d="M61.156,72.911C59.835,73.832,59,75.345,59,77.001c0,2.757,2.243,5,5,5s5-2.243,5-5c0-1.656-0.835-3.169-2.156-4.089    c-0.388,1.207-1.509,2.089-2.844,2.089S61.545,74.119,61.156,72.911z"
         id="path24"
         style="fill-opacity:1;fill:url(#radialGradient1017)" /></g></g></svg>
