<?xml version="1.0" encoding="UTF-8" standalone="no"?>
<svg
   height="300px"
   width="300px"
   fill="#000000"
   version="1.1"
   x="0px"
   y="0px"
   viewBox="0 0 100 100"
   style="enable-background:new 0 0 100 100;"
   xml:space="preserve"
   id="svg6"
   sodipodi:docname="headphones.svg"
   inkscape:version="1.1 (c68e22c387, 2021-05-23)"
   xmlns:inkscape="http://www.inkscape.org/namespaces/inkscape"
   xmlns:sodipodi="http://sodipodi.sourceforge.net/DTD/sodipodi-0.dtd"
   xmlns="http://www.w3.org/2000/svg"
   xmlns:svg="http://www.w3.org/2000/svg"><defs
     id="defs10" /><sodipodi:namedview
     id="namedview8"
     pagecolor="#505050"
     bordercolor="#eeeeee"
     borderopacity="1"
     inkscape:pageshadow="0"
     inkscape:pageopacity="0"
     inkscape:pagecheckerboard="0"
     showgrid="false"
     inkscape:zoom="2.91"
     inkscape:cx="82.302405"
     inkscape:cy="149.82818"
     inkscape:window-width="1920"
     inkscape:window-height="1011"
     inkscape:window-x="0"
     inkscape:window-y="0"
     inkscape:window-maximized="1"
     inkscape:current-layer="svg6" /><title
     id="title2">90all</title><path
     d="M50,13.5c-20.7,0-37.5,16.8-37.5,37.5v19h0c0.1,9.1,7.6,16.5,16.7,16.5h2.2c1.9,0,3.5-1.6,3.5-3.5V56.5  c0-1.9-1.6-3.5-3.5-3.5h-2.2c-3.6,0-7,1.2-9.8,3.2V51c0-16.8,13.7-30.5,30.5-30.5S80.5,34.2,80.5,51v5.2c-2.8-2-6.1-3.2-9.8-3.2  h-2.2c-1.9,0-3.5,1.6-3.5,3.5V83c0,1.9,1.6,3.5,3.5,3.5h2.2c9.2,0,16.6-7.4,16.7-16.5h0V51C87.5,30.3,70.7,13.5,50,13.5z"
     id="path4"
     style="fill:#808080;fill-opacity:1" /></svg>
