<?xml version="1.0" encoding="UTF-8" standalone="no"?>
<svg
   height="300px"
   width="300px"
   fill="#000000"
   version="1.1"
   x="0px"
   y="0px"
   viewBox="0 0 1389.7 1096.8"
   style="enable-background:new 0 0 1389.7 1096.8;"
   xml:space="preserve"
   id="svg140"
   sodipodi:docname="panther.svg"
   inkscape:version="1.1 (c68e22c387, 2021-05-23)"
   xmlns:inkscape="http://www.inkscape.org/namespaces/inkscape"
   xmlns:sodipodi="http://sodipodi.sourceforge.net/DTD/sodipodi-0.dtd"
   xmlns="http://www.w3.org/2000/svg"
   xmlns:svg="http://www.w3.org/2000/svg"><defs
     id="defs144" /><sodipodi:namedview
     id="namedview142"
     pagecolor="#505050"
     bordercolor="#eeeeee"
     borderopacity="1"
     inkscape:pageshadow="0"
     inkscape:pageopacity="0"
     inkscape:pagecheckerboard="0"
     showgrid="false"
     inkscape:zoom="1.3047881"
     inkscape:cx="45.601276"
     inkscape:cy="182.4051"
     inkscape:window-width="1920"
     inkscape:window-height="1011"
     inkscape:window-x="0"
     inkscape:window-y="0"
     inkscape:window-maximized="1"
     inkscape:current-layer="g138" /><style
     type="text/css"
     id="style2">
	.st0{fill:#000000;}
	.st1{fill:#000000;}
	.st2{fill:#000000;}
	.st3{fill:none;stroke:#000000;stroke-miterlimit:10;}
</style><g
     id="g138"><path
       d="m 474.13056,286.6 c -0.7,-2.8 -2.3,-6.2 -1.3,-8.2 -0.9,2 0.6,5.4 1.3,8.2 z"
       id="path4" /><path
       d="m 465.83056,265.4 c 1.5,1.8 2.7,3.7 3.8,5.6 -1.1,-2 -2.3,-3.8 -3.8,-5.6 z"
       id="path6" /><path
       d="m 464.13056,263.6 c -1,-1 -1.9,-2 -2.6,-3.1 0.7,1.1 1.6,2.1 2.6,3.1 z"
       id="path8" /><path
       d="m 466.03056,302.7 c -0.7,0.3 -1.3,0.6 -1.9,1 0.6,-0.4 1.2,-0.7 1.9,-1 z"
       id="path10" /><path
       d="m 466.73056,222.9 c 0.2,0.3 0.4,0.6 0.7,0.8 0,0 0,0 0,0 -0.3,-0.2 -0.5,-0.5 -0.7,-0.8 z"
       id="path12" /><path
       d="m 453.13056,420.4 c 0.9,-5.7 2.6,-11.5 5,-17.1 -2.4,5.7 -4.2,11.5 -5,17.1 z"
       id="path14" /><path
       d="m 453.63056,420.7 c -0.2,0.3 -0.6,0.1 -0.5,-0.2 -0.1,0.2 0.4,0.5 0.5,0.2 z"
       id="path16" /><path
       d="m 454.23056,419.5 c -0.1,0.2 -0.2,0.5 -0.4,0.7 0.1,-0.2 0.2,-0.4 0.4,-0.7 0,0 0,0 0,0 z"
       id="path18" /><path
       d="m 462.33056,238.5 c 0,1.5 -0.2,2.9 -1.2,4.3 1,-1.4 1.3,-2.8 1.2,-4.3 z"
       id="path20" /><path
       d="m 463.03056,247.8 c -0.5,-1.4 -1.3,-2.9 -1.9,-4.1 0.6,1.3 1.4,2.7 1.9,4.1 z"
       id="path22" /><path
       d="m 460.13056,255.4 c 0.1,-0.1 0.2,-0.3 0.4,-0.3 -0.2,0 -0.3,0.2 -0.4,0.3 z"
       id="path24" /><path
       d="m 461.93056,232.5 c -0.3,-0.2 -0.6,-0.5 -0.9,-0.8 0.3,0.3 0.6,0.6 0.9,0.8 z"
       id="path26" /><path
       d="m 1024.5296,316.8 c 0,18.8 0.3,37.6 0.6,56.5 -0.3,-18.9 -0.6,-37.7 -0.6,-56.5 z"
       id="path28" /><path
       d="m 559.03056,233.8 c -0.3,-0.8 -0.7,-1.6 -1.1,-2.4 0.3,0.8 0.7,1.6 1.1,2.4 z"
       id="path30" /><path
       d="m 690.83056,858 c -6.3,-14.8 -6.7,-31.3 7,-39.4 -1.7,-8.5 -2.7,-17.1 -3,-26 0,-0.1 0.1,-0.1 0.1,-0.1 -3.2,-9.2 -5.7,-18.7 -8.6,-27.8 -5.7,-18.1 -10.7,-36.4 -16,-54.6 -1.4,-4.9 -3,-9.8 -4.5,-14.7 -2.9,18.4 -8.6,35.8 -15.6,52.9 2.7,2.9 4.7,6.2 7.7,8.8 3.7,3.1 7.7,5.8 11.8,8.3 6.6,4 14,7.4 19.3,13.1 0.4,0.5 -0.1,1.2 -0.7,0.9 -0.1,-0.1 -0.2,-0.1 -0.4,-0.2 -12.2,1.4 -24.8,15.9 -33.2,24.4 -4.8,4.8 -12,11.2 -13.1,18.3 -1.3,8.7 4.8,13.9 11.3,17.8 16.4,10 30.8,19.6 44.6,32.4 -2.3,-4.6 -4.6,-9.3 -6.7,-14.1 z"
       id="path32" /><path
       d="m 702.63056,875 c 5.2,8.8 10.79997,17.3 15.99997,26 2.1,3.6 4.69997,7.5 6.29997,11.7 -0.1,-4.8 -0.5,-9.6 -1.5,-14.4 -2.59997,-12.7 -7.09997,-24.7 -11.99994,-36.6 -5.6,-13.8 -10.3,-27.6 -13.3,-41.8 -17.2,14.3 -5.7,37.7 4.5,55.1 z"
       id="path34" /><path
       d="m 655.43056,757.6 c 2.4,2.5 5.2,4.6 7.7,6.5 -2.5,-1.8 -5.3,-4 -7.7,-6.5 z"
       id="path36" /><path
       d="m 649.93056,749.3 c -0.7,1.6 -1.3,3.2 -2,4.8 0.6,-1.6 1.3,-3.2 2,-4.8 z"
       id="path38" /><path
       d="m 658.63056,797.2 c -5.3,4.5 -11.8,10 -15.8,16.4 4.1,-6.4 10.6,-11.9 15.8,-16.4 z"
       id="path40" /><path
       d="m 1064.1296,602.4 c -0.4,-2.7 -0.8,-5.5 -1.4,-8.2 -9,-44.1 -31.8,-83.4 -38.6,-128.6 -6.8,-45.6 2.1,-91.4 0.5,-137 -1.5,-42.2 -7.4,-85.2 -23.8,-124.3 -8.29997,-19.9 -19.49991,-38.4 -30.59988,-56.9 -13.59997,-22.6 -27.59991,-45.7 -47.59985,-63 -11.79997,-10.1 -25.89991,-18.1 -41.09988,-21.5 -15.49994,-3.5 -30.09988,1.5 -45.39985,-1 17.99994,14.4 38.89988,21.6 59.89982,31.3 18.49994,8.5 33.89988,18.8 42.19985,37.8 3.7,8.4 5.5,17.5 8.39997,26.1 4.3,12.8 9.19997,25.2 14.59997,37.6 0.3,0.6 -0.6,1.2 -0.9,0.5 -10.59997,-18 -14.89997,-38.1 -21.99994,-57.6 C 929.52984,113.3 910.4299,101.5 887.32999,92.2 868.43005,84.6 849.43011,77.1 833.83014,63.6 828.03017,58.5 821.5302,52.9 818.0302,45.8 809.63023,28.9 799.53026,17.6 778.33032,19.3 c -14.79994,1.2 -28.29991,8.9 -40.29985,17.8 -29.49991,22 -61.49991,80.5 -73.19991,99.9 -9.4,15.5 -15.6,39.8 -28.6,52.4 6.8,-6.6 13.5,-13.1 20.4,-19.2 16.3,-14.3 34.6,-31.5 57.89997,-29.1 0.4,0 0.4,0.6 0,0.6 -26.99997,-1.7 -48.79997,22.5 -67.49997,38.9 -19.1,16.7 -36.3,37.4 -58.5,50 0.2,0.1 0.3,0.3 0.5,0.4 0.5,0.4 -0.1,1.2 -0.7,0.9 -0.4,-0.2 -0.7,-0.4 -1.1,-0.6 -1,0.5 -2,1.1 -3,1.6 -0.3,0.2 -0.6,-0.3 -0.3,-0.5 0.9,-0.5 1.7,-1 2.5,-1.5 -9.5,-5.1 -18.7,-1.9 -27,4.1 0.3,0.8 0.6,1.6 0.8,2.4 0.1,0.3 -0.4,0.6 -0.6,0.2 -0.4,-0.7 -0.8,-1.3 -1.1,-2 -8.3,6.3 -15.8,15.5 -21.8,21.8 -8.8,9.3 -21.1,15.8 -28.2,26.5 -7.2,10.8 -11.5,23.2 -18.8,34 -0.3,0.4 -0.8,0.1 -0.6,-0.3 6.7,-14.4 13.1,-32.1 25.2,-43 10.3,-9.2 20.2,-18 29.8,-27.9 3.7,-3.8 8.4,-8.6 13.6,-12.5 -9.6,-16.5 -25.6,-24.3 -40.2,-35.7 -11.1,-8.7 -17.6,-19 -21.6,-32.2 -1.1,-3.6 -9,9.3 -9.6,10.5 -3.9,8.4 -3.4,16.3 -2.5,25.6 2.5,24.6 12.5,48 23.5,69.9 -18.1,-25.6 -27.2,-57.4 -25.4,-88.7 -4,2.9 -8.2,5.4 -12.7,7.4 0.6,1.6 1.2,3.3 1.8,4.9 -0.3,-1.8 -1.6,-3.3 -3.3,-3.8 -3.4,2.5 1.1,8.9 -2,11.7 -1.7,1.6 -4.9,1 -6.1,3 -0.9,1.5 0.1,3.5 1,5 2.4,3.7 4.7,7.3 7.1,11 -3.8,-1.4 -7,3.7 -6.4,7.6 0.6,4 3.3,7.4 3.8,11.4 0.7,5.3 -2.5,10.5 -1.3,15.7 1,4.6 5.1,7.8 7.7,11.8 5.1,7.9 3.9,18.7 -0.7,27 -6,10.8 -28.6,21.5 -21.7,36.4 1.8,3.8 4.8,6.8 7.5,10 7.2,8.4 12.6,18.4 15.5,29.1 9.4,-19.3 19.3,-39.1 35.7,-52.9 -14,16.1 -33.8,41.4 -36.5,62.4 4.4,-4.7 9.5,-9 15,-12.3 0.8,-0.5 1.8,0.7 1,1.3 -14.8,11.6 -22.4,25.7 -30.2,41.5 0.4,0.1 0.7,0.4 0.6,0.9 -3.4,18.4 3.3,34.6 10.8,51.2 6.4,14.2 8.9,30.5 7.7,46 0,0.1 -0.2,0.1 -0.2,0 -1.3,-12.6 -2.5,-24.9 -6.9,-36.9 -2.7,-7.3 -6.3,-14.4 -9.1,-21.7 -0.2,1.5 0,2.9 -1,4.3 0,0 0.2,0 0.2,0 -1.1,5.2 -3.1,9.8 -5.9,14 0,0 0,0 0.1,0 -6.9,10.9 -17.7,18.9 -27.6,28.8 -28.3,28.4 -18.3,64 -10,98.4 0.1,-1.3 0.2,-2.5 0.3,-3.8 0,-0.1 0.2,-0.1 0.2,0 -0.1,1.7 -0.1,3.4 -0.2,5.1 0,0.1 0,0.2 0.1,0.3 0.1,0.2 0,0.4 -0.1,0.5 -1,29.2 2.9,59.1 22.9,81.8 4.9,17 13.8,32.3 25.6,45.4 8.1,9 27.1,22.9 27.9,35.7 -0.2,-3.5 -0.5,-7 -0.9,-10.5 -2.4,-20 -4.7,-42.7 -0.1,-62.5 0.1,-0.6 1,-0.4 1,0.1 2.4,66.7 9.8,136.7 -13,200.8 -6.5,18.3 -14.6,40.1 -2.9,55.6 2.7,3.6 10.9,3.9 9.3,-0.4 -1.4,27.9 29.2,45.7 41.5,70.7 4.9,10 6.9,21.1 11,31.4 17.8,43.8 53.6,8.5 33.1,-24.7 -0.3,-0.5 0.3,-1.2 0.8,-0.8 12.8,9.5 13.2,38.6 -1.5,47.1 9.8,1 18.4,3.6 28.3,-0.1 12.1,-4.5 18.4,-13.4 29.8,-14.4 6.5,-7.3 6.7,-19.3 0.4,-26.8 5.2,0.5 7.8,7 7.2,12.2 -0.6,5.2 -3.1,10.2 -3.4,15.4 10.1,-3 19.2,-9.3 25.5,-17.8 -0.7,1.6 -1.3,3.3 -2,4.9 13.3,0.6 25.9,-10.8 26.7,-24.1 1.9,-30.2 -29.2,-21.3 -44.5,-32.9 -7.1,-5.4 -12.6,-12.3 -19.3,-18.1 -8.6,-7.4 -20,-10.5 -27.8,-18.6 -0.3,-0.3 0,-0.8 0.4,-0.7 5.4,2 11,4.5 16.4,7.4 -0.6,-1.4 -1.1,-2.8 -1.8,-4.2 -0.5,-1.1 -1.1,-2.1 -1.7,-3.1 -0.1,0.1 -0.3,0.1 -0.4,-0.1 -4.7,-5.8 -7.1,-12.9 -6.8,-20.5 0.4,-11.2 -1.2,-21 -2.3,-32 -0.9,-9.8 -1.5,-19.2 1.6,-28.7 3.5,-10.9 12.7,-18.2 15.7,-29.8 3,-11.7 4.8,-23.2 9.6,-34.5 4.4,-10.4 9.7,-20.7 14.8,-30.9 21.7,-43.4 29,-74.8 16.6,-122.6 -2.6,-10.1 -5.6,-20.8 -13.1,-28.1 -7.5,-7.3 -21.2,-9.3 -27.9,-1.3 11.5,5.1 21.6,13.3 29.1,23.5 -9.5,-8.7 -20.2,-16 -31.7,-21.8 11.2,8.7 20.6,19.7 27.5,32 -6.9,-7.7 -13.9,-15.4 -20.8,-23.1 -4.8,-5.3 -15,-9.6 -17.2,-2.8 13.9,10.2 24.4,25 29.4,41.5 -8.5,-19.9 -23.3,-37 -41.7,-48.2 7.8,11.3 15.7,22.6 23.5,33.9 -3,-3.6 -6.1,-7.1 -9.1,-10.7 4.7,7.8 6.2,17.5 4.1,26.4 -0.4,-9.2 -0.9,-18.8 -5.8,-26.6 -4.9,-7.8 -15.9,-12.5 -23.6,-7.6 9.8,11.5 17,25.2 20.9,39.9 -4.6,-15.5 -11.5,-33.4 -27.1,-37.5 -4.7,-1.2 -9.6,-1 -14.5,-1.2 -13.8,-0.5 -27.5,-4.5 -39.4,-11.4 -3.3,2 -6.5,4 -9.8,6 14.7,6.1 30.3,9.9 46.2,11.2 -7,1.6 -14.4,1.7 -21.5,0.3 -0.4,9.8 -0.9,19.7 -1.3,29.5 -3.3,-8.8 4,-19.8 -1.2,-27.6 -2.8,-4.1 -8,-5.6 -12.6,-7.4 -13.9,-5.2 -26,-15.4 -33.6,-28.2 -2.8,4.3 -5.6,8.5 -8.5,12.8 2.1,-4.4 4.3,-8.8 6.4,-13.2 -2.2,-1.8 -4.5,-3.5 -6.7,-5.3 -3.8,3.4 -7.6,6.7 -11.4,10.1 2.9,-3.3 5.8,-6.6 8.7,-9.9 -6.5,-12.4 -13,-24.8 -19.5,-37.2 -1,3.3 -2,6.6 -3,9.9 2.6,0.1 5.3,0.2 7.9,0.3 -12,2.4 -22.9,10 -29.4,20.4 2.8,-9.5 10.8,-17.3 20.3,-20 -0.3,-3.2 -0.6,-6.3 -0.9,-9.5 -10.4,4.5 -20.1,10.4 -28.8,17.5 13.2,-10.3 26.5,-20.7 39.7,-31 -4.9,2.1 -8.3,7.4 -8.1,12.7 2.7,0.9 5.3,1.9 8,2.8 2.7,-7.4 5,-17 -1.1,-22.1 -4.7,-4 -12,-2.6 -17.3,0.5 -5.3,3.1 -9.8,7.6 -15.5,9.9 6,-8.1 15.8,-13.3 25.9,-13.7 -7.6,-0.2 -15.2,1.5 -22,4.7 9.2,-8.5 25.1,-8.3 34,0.5 15.1,-33.7 27.6,-68.6 37.4,-104.3 -1.3,25.5 -9.5,50.5 -23.5,71.8 3.6,-3.2 7.3,-6.4 10.9,-9.6 -5.3,11.1 -10.7,22.1 -16,33.2 -7.1,14.8 -14.3,32.3 -7,47 8.6,17.4 34.5,23.6 38.1,42.7 5,-2.2 10,-4.5 15.1,-6.7 -8.9,-24.2 -42.2,-32.3 -51.3,-56.4 9.9,10 25.2,14.3 38.9,11.1 6.3,-1.5 12.8,-4.5 19.1,-2.9 5.7,1.5 11.4,6.6 16.5,3.8 5.9,-3.2 4.7,-14 11.1,-15.8 5.7,9.9 -5.2,21 -15.2,26.4 -10,5.4 -22.4,12.9 -20.9,24.2 1.2,8.6 10.1,13.7 18.4,16.2 17.6,5.4 36.9,4.9 54.3,-1.2 -4,-5.2 -10,-8.9 -16.4,-10.3 7.1,0.8 13.9,3.8 19.2,8.5 -1.7,-7.3 -9,-12.8 -16.4,-12.5 2.2,1.9 5.7,-1.8 4.6,-4.6 -1,-2.8 -4.2,-4 -7,-5 7.4,0.3 12,7.7 17,13 5,5.4 15.2,8.6 18.8,2.2 -5,-4.2 -9.9,-8.4 -14.9,-12.6 4.9,6.7 14.4,9.6 22.3,6.8 3,-1.1 5.9,-3.1 6.7,-6.2 0.8,-3.1 -1.7,-6.9 -4.8,-6.5 3.6,-0.2 7.3,-0.3 10.9,-0.5 -0.1,2.3 -4.2,-0.1 -3.1,-2.2 1,-2 3.7,-2.5 5.5,-4 1.8,-1.5 1.3,-5.5 -0.9,-4.8 21.8,3.7 42.5,13.6 59.2,28.2 -2.3,-1.5 -4.6,-3 -6.8,-4.5 6,5.8 12,11.7 18,17.5 -16.4,-19.8 -41,-32.6 -66.6,-34.9 9.2,6.3 17.8,13.6 25.4,21.7 -5,-3.4 -10.1,-6.9 -15.1,-10.3 9.9,11.9 20.6,23.1 32,33.6 -9.3,-7.5 -18.6,-15.1 -27.9,-22.6 14.1,14 28.2,28 42.4,42.1 -13.4,-12.1 -26.7,-24.2 -40.1,-36.3 16.5,62.1 34.5,123.8 54.1,185 -3,-5.4 -6,-10.7 -9,-16.1 11.7,45 23.39997,90.1 35.09994,135.1 14.99994,-27.9 36.09988,-52.3 60.69979,-72.3 10.29997,-8.4 21.89994,-17 25.59991,-29.8 3.1,-10.8 -0.3,-22.2 -3.09997,-33.1 -17.39994,-67.9 -13.09997,-139.3 -8.79997,-209.3 -2.7,57.2 -2.1,114.6 1.79997,171.8 0.5,6.8 1.4,14.5 6.8,18.6 3.29997,2.5 7.59997,3.2 11.69994,3.3 21.29994,0.4 40.69988,-14.1 51.99985,-32.2 11.39997,-18 16.19994,-39.3 20.89994,-60.1 3.29997,-14.9 6.69997,-30.4 3.69997,-45.4 -3.79997,-18.7 -18.09994,-34.9 -36.19988,-41 15.29994,1.2 28.09991,13.7 33.39991,28.1 5.39997,14.4 4.49997,30.4 2.09997,45.6 -6.79997,42.7 -25.49991,82.9 -50.59982,118.2 -18.89994,26.6 -41.39988,50.5 -65.49979,72.4 -12.39997,11.2 -25.39991,22 -35.69988,35.2 -12.29997,15.8 -20.39994,34.4 -28.29991,52.7 -3.8,8.8 -7.69997,17.9 -7.99997,27.5 -0.5,15.1 7.89997,28.8 15.89994,41.6 -5,-7.9 -13.39997,-7.4 -17.39994,-27.9 -13.5,10.5 -15.3,45.8 -12.6,61.5 0.4,2.5 1.2,5.3 3.5,6.5 2.2,1.1 4.8,0.2 7,-0.8 6.89997,-2.9 13.89994,-5.7 20.79994,-8.6 -3.9,-9.8 -5.2,-20.5 -3.7,-30.9 -0.5,16 5.3,32.1 16.09994,43.9 2.7,3 5.8,5.8 9.69997,7 6.7,2.1 13.69997,-1 20.09994,-4 4.9,-2.3 9.79997,-4.7 14.69997,-7 0.89997,-0.4 1.89997,-1 1.79997,-2 -0.1,-1 -1.99997,-0.9 -1.59997,0 4.99997,10.2 52.39982,-23.7 56.79979,-28.2 16.59997,-17.2 25.29994,-41.4 36.29991,-62.2 23.09991,-43.7 56.29979,-82.9 81.49973,-125.8 19.99994,-34 38.69988,-68.7 56.09985,-104.1 15.6,-31.5 36,-63.7 36.5,-99.9 0.2,-20 -5.2,-39.5 -7.7,-59.3 7.5,23.9 11.2,49 11.1,74.1 8.2,-14.5 9.7,-32.8 7.3,-50.5 z m -407.09904,405.1 c 19.3,9.3 2.8,35.5 2.8,35.5 h -3.3 c 0,0 16,-23 0.3,-34.8 -0.3,-0.2 -0.1,-0.8 0.2,-0.7 z m -79.3,-353.1 c 0.2,0.3 0.3,0.7 0.4,1.1 1.3,2.9 2.8,6 3.6,9.1 0.2,0.4 0.4,0.8 0.6,1.2 0.1,0.2 -0.2,0.3 -0.2,0.1 -0.1,-0.4 -0.2,-0.9 -0.3,-1.3 -1.4,-2.9 -2.4,-6.1 -3.6,-9.1 -0.3,-0.4 -0.4,-0.7 -0.5,-1.1 -0.1,0 0,0 0,0 z m -4.1,-7.7 c 3.6,7.4 5.1,15.2 6.6,23.2 0,0.2 -0.2,0.3 -0.3,0.1 -1.8,-7.9 -3.1,-15.9 -6.4,-23.2 0,-0.2 0.1,-0.2 0.1,-0.1 z m -13.9,-6.1 c 5.8,-0.6 8.8,10.7 10,14.7 2.2,7.4 5.1,16.2 4.5,24 -0.1,0.7 -1.1,0.9 -1.2,0.2 -2.7,-11.7 -3.1,-30.2 -13.5,-38.1 -0.3,-0.3 -0.2,-0.8 0.2,-0.8 z m -7.8,4.3 c 3.4,-3.8 7.1,10.8 7.3,11.8 1.6,7.9 4,17.9 2.4,25.9 -0.1,0.6 -1.1,0.6 -1.2,0 -3,-12.7 -1.6,-26.1 -8.5,-37.6 -0.1,0.1 -0.1,0 0,-0.1 z m -9.1,3 c 0,-0.2 0.3,-0.2 0.3,0 1.2,9.1 1.4,18.5 -0.7,27.4 -0.1,0.3 -0.6,0.2 -0.6,-0.1 1.2,-9.2 2.1,-18.1 1,-27.3 z m -46.6,257.3 c -0.3,0.7 -1.3,0.3 -1.3,-0.4 -1.5,-20.3 18.9,-46.8 4.3,-65.3 -0.1,-0.1 -0.1,-0.3 0.1,-0.3 14.6,-1.9 0,59.3 -3.1,66 z m 27.9,-254.5 c 0,-0.2 0.4,-0.1 0.3,0 -0.9,9.8 -0.1,20.4 -3.4,29.9 -0.2,0.4 -0.9,0.4 -0.8,-0.1 1.2,-9.9 2.5,-19.9 3.9,-29.8 z m -4.9,-9.4 c 0.1,-0.3 0.5,-0.2 0.4,0.1 -2.7,10.6 -2.7,21.6 -5.1,32.2 -0.1,0.5 -0.9,0.4 -0.8,-0.1 0.7,-10.8 2.1,-21.8 5.5,-32.2 z m -7.1,220.7 c 9.9,18.9 16.3,43 12.5,64.3 -0.1,0.4 -0.8,0.3 -0.7,-0.1 1.2,-22.8 -6.5,-42.5 -12,-64.2 0,0 0.2,-0.1 0.2,0 z m -1.8,-223.4 c -2.4,13.7 -7.2,26.7 -9,40.7 0,0.4 -0.6,0.4 -0.6,0 0.3,-13.7 4.1,-28.1 9,-40.8 0.2,-0.4 0.7,-0.3 0.6,0.1 z m -5.1,-1.7 c -6.3,9 -6,20 -8.8,30.2 -0.1,0.3 -0.6,0.3 -0.6,-0.1 0.8,-9.9 2.2,-22.6 9.2,-30.2 0.1,0 0.3,0.1 0.2,0.1 z m -4,-2.7 c 0.3,-0.4 0.9,0.1 0.6,0.5 -5.8,9.3 -9.4,19.3 -11.9,30 -0.1,0.3 -0.6,0.2 -0.6,-0.1 1.4,-10.7 5,-22 11.9,-30.4 z m -4.4,-6.1 c -4.2,6.6 -7.5,13.4 -9,21.1 0,0.2 -0.3,0.1 -0.3,-0.1 1.2,-7.5 3.8,-15.6 8.9,-21.3 0.2,-0.3 0.5,0 0.4,0.3 z m -2.5,-4.4 c 0.3,-0.2 0.6,0.1 0.4,0.4 -6.1,7.1 -7,16.5 -9.7,25.2 -0.1,0.4 -0.7,0.3 -0.7,-0.1 1.1,-8.7 3.2,-19.5 10,-25.5 z m -18.4,6.6 c 1.6,-6 4.7,-11.6 9.2,-15.9 0.2,-0.2 0.5,0.1 0.3,0.2 -3.7,5 -6.2,10.4 -8.8,16 -0.3,0.3 -0.8,0.1 -0.7,-0.3 z m 14.8,-9.9 c 0.2,-0.1 0.5,0.2 0.3,0.4 -10.4,8.6 -14,22.5 -17.3,35 -0.1,0.4 -0.8,0.4 -0.8,-0.1 1.6,-12.5 6.3,-28.5 17.8,-35.3 z m -13,-13 c 0.2,-0.2 0.5,0.2 0.3,0.4 -3.2,2.6 -5.5,6.4 -7.3,10.1 -0.1,0.2 -0.4,0 -0.3,-0.1 1.6,-4.1 3.8,-7.8 7.3,-10.4 z m -32.7,-18.1 c 4,-2.4 9,-4.6 13.7,-5.1 0.6,-0.1 0.7,1 0.1,1.1 -4.8,0.7 -8.8,3.9 -13.5,4.8 -0.4,0 -0.7,-0.6 -0.3,-0.8 z m -16.1,13.5 c 4.5,-6.1 11.2,-10.9 19.1,-11.1 1.4,0 3.9,-0.1 6.5,0.2 0.8,-0.6 1.6,-1.1 2.3,-1.7 0.3,-0.3 0.8,0.2 0.4,0.4 -0.5,0.5 -1.1,1 -1.6,1.4 2.9,0.4 5.6,1.3 6.5,3.2 0.5,-0.1 0.9,-0.1 1.4,-0.1 0.2,0 0.1,0.2 0,0.2 -0.4,0.1 -0.8,0.1 -1.2,0.2 0,0.1 0.1,0.3 0.1,0.4 0,0.1 -0.1,0.2 -0.2,0.1 -0.2,-0.1 -0.4,-0.2 -0.5,-0.3 -5.2,1.8 -8.5,8 -11.3,12.3 -0.2,0.3 -0.8,0.1 -0.7,-0.3 1.8,-4.8 6,-11 11.4,-12.4 -1.9,-1.2 -4.4,-1.8 -7.1,-2 -2.3,2 -4.6,4 -7,5.7 -0.2,0.2 -0.6,-0.2 -0.4,-0.4 1.6,-2.1 3.7,-3.8 5.9,-5.3 -2.9,0 -5.7,0.3 -7.7,0.9 -5.9,1.8 -10.3,5.2 -15.1,9 -0.4,0.5 -1.1,0.1 -0.8,-0.4 z m 53.3,-217.5 c 0.1,-0.4 0.6,-0.5 0.9,-0.2 2.2,2 2.3,5.9 2.3,8.8 0.1,3 0.7,6.8 -0.6,9.6 0,0.1 -0.1,0.1 -0.1,0 -1.5,-2.4 -1,-5.7 -1.4,-8.4 -0.4,-3.2 -1.9,-6.8 -1.1,-9.8 z m 12.7,83.3 c -0.7,-8.2 -4.3,-18 -10.9,-23.4 -3.5,-2.8 -7.5,-5.4 -10.7,-8.6 -5.2,-5.2 -9.3,-11.4 -9.3,-18.9 0,-0.5 0.6,-0.5 0.8,-0.1 2.4,6.8 4.2,12.8 9.7,17.9 4,3.8 8.7,6.8 12.5,10.9 5.5,5.9 7.9,14.4 8.1,22.3 -0.1,0 -0.2,0 -0.2,-0.1 z m 3.4,-23.5 c -0.1,0.6 -1.1,0.5 -1.1,-0.1 0.4,-4.5 0.3,-10.2 -0.5,-15.9 0,1.2 0,2.4 -0.1,3.7 0,1.5 0,2.8 -0.5,4.2 0.1,1.7 0,3.4 -0.7,5 -0.1,0.4 -0.7,0.4 -0.8,0 -0.2,-0.5 -0.3,-1 -0.4,-1.6 -2.3,-4.4 -8.5,-3.7 -12.3,-5.9 -2.9,-1.7 -5.8,-3.8 -7.8,-6.6 -4.2,-6.1 -3,-15.6 -9.7,-19.9 -0.6,-0.4 -0.4,-1.3 0.3,-1.3 1.2,0 2.5,0 3.7,-0.1 -0.8,-0.6 -0.5,-3 0.8,-3.2 9.7,-1.8 22.5,2.8 27.3,11.9 4.7,8.6 3.5,20.6 1.8,29.8 z m 6.4,-78.3 c -3.9,-1.6 -8.4,3.5 -10.5,6.1 -2.2,2.8 -3.8,6.3 -6.1,9 -0.4,0.4 -1,0.1 -1.1,-0.4 -0.3,-4.3 5,-9.7 8,-12.2 2.6,-2.3 6.5,-5.3 9.7,-2.5 0.1,-0.1 0.1,0 0,0 z M 745.73044,962 c -0.4,0.2 -0.6,-0.5 -0.3,-0.7 16.39994,-10.7 47.09985,-9.8 47.89985,-35.1 0,-0.6 1.1,-0.9 1.2,-0.2 3.39997,24.2 -32.79991,29.9 -48.79985,36 z M 650.23056,258.3 c 0,0 0,0 0,0 -7,13.9 -7.7,27.5 -3.1,42.2 0.2,0.7 -0.7,0.9 -1,0.4 -9.5,-12.2 -3,-30.9 4.1,-42.6 z m -9.6,54.5 c 7.8,7.6 12.2,17.4 21.7,23.4 5.8,3.6 13,7.1 17.2,12.8 6.2,8.4 9.7,20.4 20.1,24.8 7.6,3.2 15.89997,4.4 22.29997,9.8 0.89997,0.8 -0.2,1.9 -1.2,1.5 -9.39997,-4.1 -19.99997,-6.6 -28.29997,-12.9 -5.4,-4.1 -7.9,-10.8 -11.4,-16.4 -6.6,-10.5 -17.2,-14 -25.7,-22.2 -6.2,-6 -10.2,-13.5 -15,-20.6 -0.2,-0.2 0.1,-0.4 0.3,-0.2 z m 74.89997,-7.4 c -0.4,-2.7 -0.7,-5.6 -0.7,-8.4 0,-2 -0.5,-6 2.4,-6 0.1,0 0.2,0 0.3,0 -0.1,-0.2 -0.1,-0.4 -0.2,-0.6 -1.7,-5.4 -3.2,-10.6 -3.9,-16.3 -0.1,-0.6 0.6,-0.9 1.1,-0.8 5.5,0.8 12.99997,3.5 10.09997,-5.8 -0.2,-0.8 0.4,-1.3 1.1,-1.4 4.5,-0.4 8.89997,-1.4 13.09997,-2.9 2.59997,-1 4.49997,-2.8 5.59997,-5.3 -4.79997,-0.3 -3.6,-0.2 -8.29997,-1 -0.7,-0.1 -0.7,-1.1 -0.2,-1.4 3.5,-2.1 31.09991,-19.2 27.09991,-3 -2,8.3 -6.99997,15.6 -11.39997,22.8 -4.89997,7.9 -7.89997,14.1 -7.89997,23.7 0,8.4 -1.5,16.5 -2.2,24.9 -0.1,0.9 -1.39997,0.9 -1.39997,0 0,-10 0.2,-22.5 2.19997,-32.3 1.5,-7.4 5.7,-13.2 9.69997,-19.5 2.2,-3.5 4.6,-7 6.4,-10.8 2.09997,-4.4 4.59997,-16.6 -5.7,-12.6 -4.69997,1.8 -8.79997,4.3 -13.29994,6.6 -3.7,1.9 7.19997,0.8 9.09997,0.8 0.8,0 1.2,1 0.6,1.6 -3.7,3.4 -8.1,7.6 -12.99997,8.8 -1.6,0.4 -8.59997,1.7 -8.09997,4.2 1,5.2 0.9,3.1 0.3,8.3 -0.1,0.6 -0.6,1.3 -1.3,1 -2,-0.7 -13.19997,-7.3 -10.49997,2 1.1,4 2.3,7.9 3.6,11.8 0.3,0.9 -1,1.8 -1.7,1 -2.7,-3.4 -1.1,6.4 -0.9,8.3 0.3,2.3 0.6,4.6 0.5,6.9 0,0.6 -0.6,1.1 -1.2,0.9 -9.19997,-2.8 -8.59997,5.4 -10.29997,9.7 0,0.1 -0.1,0 -0.1,0 0.6,-4.6 0.4,-9.9 5.1,-11.8 3.89997,-1.6 4.89997,2.8 3.99997,-3.4 z m 6.89997,19.8 c 3.5,3.4 2.3,9.5 3.4,13.8 1,3.8 14.89994,20.9 18.79994,12.1 2.2,-4.9 0.8,-10 1.8,-15.1 0.1,-0.5 0.8,-0.5 0.9,0 1.7,6.9 0.9,27.5 -11.59997,19 -4.89997,-3.3 -11.69997,-8.9 -12.69997,-15.2 -0.7,-4.5 0.2,-12.4 -4.99997,-14.7 -4.3,-1.9 -8.39997,-0.5 -12.39997,-2.6 -0.1,-0.1 -0.1,-0.3 0.1,-0.3 6.4,0.5 11.39997,-2 16.69994,3 z M 595.13056,258.9 c 0.2,-0.1 0.4,0.3 0.3,0.4 -5.4,5 -4,13.3 -5.1,19.9 -0.1,0.4 -0.7,0.4 -0.7,0 -1.1,-5.6 -1,-17.8 5.5,-20.3 z m -76.5,40.2 c -0.5,0.5 -1.4,-0.2 -1,-0.8 13.3,-21.3 40.9,-23.7 61.7,-12.8 0.1,0 0,0.1 0,0.1 -23.2,-9.6 -43.7,-4.5 -60.7,13.5 z m 51.6,225.4 c -1,9.5 -1.4,20.3 -6.4,28.7 -0.3,0.4 -1,0.2 -0.8,-0.4 6.2,-18.3 5.2,-37.4 1.5,-56 -0.1,-0.6 0.7,-1 1,-0.4 4.8,9 5.7,18.1 4.7,28.1 z m -6.4,-199.2 c -3.8,8.8 -6.4,18.9 -11.3,27.2 0,0 -0.1,0 -0.1,0 0.8,-10.5 6.4,-22.1 11.1,-31.4 5,-9.8 10.6,-20.8 19.5,-27.7 0.6,-0.5 1.3,0.2 0.8,0.8 -7.8,10 -14.9,19.4 -20,31.1 z m 12.9,69.6 c 1.3,-5.2 3.9,-14.7 8.5,-18.1 0.4,-0.3 0.8,0.2 0.8,0.6 -1.2,7.8 -16.1,24.1 -3.3,29.3 0.3,0.1 0.3,0.7 -0.1,0.7 -6.6,-0.3 -7.2,-7.3 -5.9,-12.5 z m 15.4,60.8 c -0.6,1.2 -2.3,0.3 -2.1,-0.9 0.9,-4.8 -8.8,2.3 -10.7,3.5 -0.7,0.4 -1.6,-0.5 -1.2,-1.2 6.5,-9.2 19.7,-24.9 15.6,-36.8 -1.2,-0.1 -2.4,-0.2 -3.6,-0.4 -0.4,-0.1 -0.5,-0.5 -0.5,-0.8 0.6,-3.1 0.1,-1.8 1.6,-4.4 0.1,-0.2 0.6,-0.1 0.5,0.2 -1.9,6.4 11.3,2.5 13.8,2.3 3.2,-0.3 6.7,-0.6 9.9,0.2 3.5,0.9 7.8,3.1 12,4.4 0,-0.4 0,-0.8 0,-1.2 0,-0.8 0.9,-0.9 1.3,-0.4 0.4,0.6 0.7,1.2 1,1.9 0.2,0.2 0.5,0.4 0.8,0.5 0.2,0 0.4,0.1 0.6,0.1 0,-0.1 0.1,-0.2 0.1,-0.3 0.4,-1.2 2.1,-0.8 2,0.3 2.3,-0.1 4.5,-0.9 6.3,-2.9 0.4,-0.5 1.3,0.2 0.9,0.7 -1.5,2.1 -3.4,3.3 -5.5,3.7 0,0 0,0 0,0.1 0.2,7.7 1.3,16.5 -4.8,22.4 -5.3,5.1 -13,9.3 -19.7,12.2 -0.5,0.2 -0.9,-0.3 -0.6,-0.8 4.4,-5.5 12.6,-6.7 17.4,-11.9 6.4,-6.8 3.2,-14.3 6.1,-21.8 -0.2,0 -0.4,0 -0.7,0 -0.2,0.6 -0.4,1.1 -0.6,1.7 -0.1,7.6 -6.3,14 -13.1,17.1 -9.6,4.4 -21.6,0.9 -26.8,12.5 z m 83.8,149.8 c -9,-8.8 -18.6,-17.2 -30.1,-22.7 -0.2,-0.1 -0.3,-0.2 -0.5,-0.2 -0.3,0.2 -0.5,0.4 -0.8,0.6 -0.1,0.1 -0.2,0 -0.1,-0.1 0.2,-0.2 0.3,-0.5 0.5,-0.7 -10.4,-5 -25.5,-11.5 -37,-8.4 -0.2,0.1 -0.4,-0.2 -0.2,-0.4 8.1,-6.4 23.9,1.2 32,4.4 2.1,0.8 4.2,1.8 6.2,2.8 6.1,-9.7 10.7,-19.4 15.2,-30.1 3.2,-7.7 6.8,-15.4 3.4,-23.8 -1.7,-4.1 -3.1,-7.3 -3.7,-11.7 -0.1,-0.9 1.2,-1.2 1.7,-0.4 6.9,11.8 8.6,21.1 3,33.8 -4.9,11.1 -9.1,24.5 -18.4,32.8 11.4,5.7 21.6,13.8 29.7,23.5 0.2,0.3 -0.4,1 -0.9,0.6 z M 766.63038,501 c -2.6,2.4 -2.1,2.3 -5.4,3.5 -9.19997,3.4 -2.99997,7.7 -6.09997,12.3 -3.6,5.5 -7.49997,8.2 -9.69997,15.2 -0.7,2.1 -2.2,4.7 -3.9,6.2 -4.89997,4.2 -8.79997,9.5 -13.39994,13.7 0.3,0.2 0.5,0.6 0.3,1 -3.3,6.2 -6.2,11.8 -13.19997,13.8 -6.19997,1.8 -11.39997,-0.2 -16.69997,5.6 -1.6,1.8 -2.8,2.8 -5,3.8 -2.9,1.3 -7.1,1.3 -10.2,1.2 -6.5,-0.3 -10.7,1.4 -16,5 -5,3.3 -8.8,5 -14.2,1.9 -0.9,-0.5 -0.3,-2 0.7,-1.7 7.7,2.6 16.1,-7 23.4,-8.6 3,-0.7 6.1,0.2 9.1,0 9.6,-0.8 7,-1.9 11.8,-5.8 3.3,-2.7 5.7,-4.2 10,-4.1 9.29997,0.2 12.19997,-4.2 16.79994,-9.5 -0.3,0 -0.5,-0.4 -0.3,-0.6 2.7,-2.9 4.8,-7.9 7.79997,-10.5 0.8,-0.7 8.49997,-7.4 7.8,-6.5 4.29997,-5.5 5.09997,-11.7 9.69994,-16.8 5.1,-5.7 2.3,-12.1 7.8,-16.4 5.89997,-4.5 8.89997,-8.5 9.39997,-15.9 0,-0.6 0.9,-0.6 0.9,0 0.2,3 1.19997,10.8 -1.4,13.2 z m 13.59994,-40.6 c -0.6,2.2 -1.5,2.9 -2.89997,4.6 -3.3,3.9 -0.1,9.8 -0.4,14.2 -0.2,3.2 -6.8,5.8 -8.69997,7.2 -0.3,0.2 -0.6,-0.3 -0.4,-0.5 2.79997,-3.3 9.09997,-5.8 6.89997,-11.8 -0.5,-1.4 -2,-4.2 -1.4,-5.8 1.2,-3.7 5.49997,-8.2 2.7,-12.3 -1.8,-2.6 -3.5,-5.2 -5,-8 -7.39997,-14.2 -12.49994,-28.4 -6.99997,-44.2 0,0 0.1,0 0.1,0 -3.1,16 1.1,29.1 9.09997,43 1.5,2.8 7.99997,9.8 6.99997,13.6 z m -2.89997,-110.9 c -5,11.3 -8.1,23.4 -14.29997,34.2 -0.2,0.4 -0.8,0.1 -0.7,-0.3 4.7,-14.7 14.09997,-29.8 16.89994,-44.9 2.1,-11 -3.99997,-28.1 -13.09994,-34.9 -0.3,-0.2 -0.2,-0.7 0.2,-0.7 8.99997,-0.7 14.19994,21.4 15.49994,27.6 1.3,6.3 -2,13.2 -4.49997,19 z m -1.9,-43.2 c -0.3,0.6 -1.4,0.2 -1.2,-0.5 4.79997,-16.2 8.29997,-32.4 6.69997,-49.5 -1.4,-14 -3.99997,-38.4 -18.29994,-45.2 -14.39994,-6.8 -34.49988,-9.9 -49.69985,-4.3 -8.09997,3 -15.89997,7 -23.59997,10.9 -8.3,4.2 -13.9,10.2 -20.9,16.1 -1.1,0.9 -2.5,-0.5 -1.5,-1.5 8.1,-8.1 13.9,-13.6 24.3,-18.8 8.9,-4.4 18,-9.9 27.89997,-11.6 15.29994,-2.5 34.09988,0.3 47.39985,8.6 11.29994,7 14.19994,26.5 15.69994,38.4 2.6,18.7 1.6,40.2 -6.79997,57.4 z M 764.33038,111.5 c -8.69997,7.4 -17.39994,14.6 -26.29991,21.7 -1.1,1.8 -2,2.5 -2.7,2.2 -1,0.8 -2,1.6 -3,2.4 -1.09997,0.9 -2.59997,-0.6 -1.49997,-1.5 9.99994,-8.3 19.99991,-16.7 30.29988,-24.8 3.7,-3.1 7.29997,-6.2 10.89997,-9.4 14.29997,-12.8 27.09991,-27.6 41.79988,-39.9 0.3,-0.3 0.99997,0.1 0.7,0.5 -9,12.7 -21.49994,23.7 -33.29991,34.2 C 797.53026,86 814.8302,77 834.33014,72.2 c 0.1,0 0.1,0.1 0,0.1 -26.39991,7.5 -48.79982,22.5 -69.99976,39.2 z m 105.59967,568.4 c 0.49997,5.5 1.09997,12.2 -4.4,15.5 -5.69997,3.3 -4.69997,-5.4 -12.39997,4.8 -1.99997,2.6 -4.69997,4.2 -7.49997,5.6 -5.29997,2.7 -9.99997,6.8 -15.69994,3.1 -5.7,-3.7 -8.69997,-12.1 -14.19997,-16.6 -0.2,-0.1 0.1,-0.4 0.2,-0.2 4.5,3.6 7.4,7.5 10.79997,12.1 6.2,8.4 19.79994,-1.1 24.49994,-7.6 1.89997,-2.5 4.49997,-4.9 7.79997,-4.9 8.29997,0 6.99997,-6.2 8.99997,-11.9 0.5,-1.2 1.8,-0.9 1.9,0.1 z m -2.5,-70.2 c 0.9,0 0.9,1.3 0,1.4 -5.3,0.6 -16.79994,4.1 -22.29994,2 -6.59997,-2.5 -11.99994,-7.8 -17.39994,-0.3 -1.7,2.4 -6.09997,11.1 -10.29997,9 -5.59997,-2.8 -5.79997,-11.9 -6.69997,-17.1 -1.2,-6.3 -2.3,-29.3 -9.79997,-31.7 -0.4,-0.1 -0.4,-0.7 0,-0.9 8.29997,-2.7 12.69997,36.6 14.09994,41.7 3.3,12.3 12.99997,-7.5 18.09997,-8.9 2.39997,-0.6 4.39997,-0.9 6.19997,1.3 7.09997,8.7 18.39994,3.3 28.09991,3.5 z M 914.6299,426.5 c -3.9,2.2 -8.69997,2.5 -12.39997,5.2 -4.39997,3.1 -6.99997,7.7 -9.89997,12.1 -2.8,4.2 -8.79997,4.1 -10.89997,9 -2.09997,4.9 -3.29997,9.5 -6.89997,13.4 -4.99997,5.5 -6.69997,16.1 -14.49994,17.9 -0.4,0.1 -0.5,-0.5 -0.2,-0.6 5.59997,-2.2 17.39994,-23.7 19.19994,-27.9 3.49997,-8.2 11.39994,-12.5 16.69994,-19.6 2.69997,-3.5 5.49997,-6.1 9.69997,-7.8 3.99997,-1.6 13.49994,-4.1 12.89994,-9.8 -0.2,-2.1 -0.6,-4.2 -1.1,-6.3 -0.6,-3.2 -1.19997,-6.4 -1.09997,-9.6 0.49997,-15.2 -1.3,-26.4 -9.89997,-39.4 -5.1,-7.8 -10.19997,-15.3 -9.79997,-25 0.4,-11.8 4.29997,-23.4 4.29997,-35.2 -0.1,-15.9 -2.1,-31.3 -4.29997,-47 0,-0.1 0.1,-0.2 0.2,0 3.59997,15.1 5.99997,31.5 5.49997,47.1 -0.4,13.5 -6.89997,29.1 -2.9,42.3 4.2,13.8 15.39997,23.9 19.09994,38.1 1.3,4.9 0.2,10.6 0,15.5 -0.2,6 0.7,11.5 1.7,17.4 1,4.9 -1.1,7.7 -5.39997,10.2 z m 46.49985,174.6 c -3.3,7.9 -8.29997,15.1 -12.49997,22.5 -4,7 -7.29997,14.3 -10.99997,21.5 -0.1,0.1 -0.2,0 -0.2,-0.1 3.6,-15.2 14.19997,-31.5 22.99994,-44.2 0.2,-0.3 0.8,-0.1 0.7,0.3 z"
       id="path42" /><path
       d="m 492.23056,431.3 c 0,0 0,-0.1 0,-0.1 0,0 -0.1,0 -0.1,0 0,0 0,0 0.1,0.1 z"
       id="path44" /><path
       d="m 493.23056,434.7 c 0,0 0,0 0,0 0.1,0 0.1,-0.1 0.1,-0.1 -0.1,0 -0.1,0 -0.1,0.1 z"
       id="path46" /><path
       d="m 493.53056,437.6 c 0.1,0.1 0.1,0.1 0.2,0.2 0,-0.1 0,-0.2 0,-0.2 -0.1,0 -0.2,0 -0.2,0 z"
       id="path48" /><path
       d="m 489.93056,416.5 c -1.9,0 -3.5,-1.6 -3.5,-3.5 0,-1.6 1.2,-3 2.7,-3.4 -4.1,-4.5 -10.6,-5.7 -18.9,-3.1 3.7,-0.4 7.5,-0.9 11.1,-0.3 0.9,0.2 0.7,1.6 -0.2,1.6 -1.7,0 -3.5,-0.1 -5.3,-0.1 -0.2,0.3 -0.4,0.7 -0.6,1.1 0,0 0,0 0,0 -1.5,6.6 0.6,15 6.5,18.7 1.3,0.8 2.7,1.6 4.2,2.1 0.4,0.1 0.8,0.2 1.2,0.3 0.7,0.2 1.5,0.2 2.2,0.2 3.9,-0.3 4.5,-2.9 6.4,-5.7 0.1,-0.1 0.2,-0.2 0.3,-0.2 -0.7,-3.2 -1.8,-6.3 -3.1,-9 -0.9,0.7 -1.9,1.3 -3,1.3 z"
       id="path50" /><path
       d="m 476.83056,425.7 c 0,0 0,0 0,0 0,0 0,0 0,0 0,0 0,0 0,0 z"
       id="path52" /><path
       d="m 475.33056,423.5 c 0,0 0.1,0 0,0 0,-0.1 0,-0.1 -0.1,-0.2 0.1,0.1 0.1,0.1 0.1,0.2 z"
       id="path54" /><path
       d="m 627.23056,423.6 c -0.9,-0.2 -1.8,-0.5 -2.7,-0.8 -6.4,-2.2 -12.1,-4.2 -19,-3.3 -1.5,0.2 -2.9,0.4 -4.3,0.5 -0.4,0.4 -0.7,0.7 -1,1.1 0,0 -0.1,0.1 -0.1,0.1 -5.4,7.1 3.8,18.2 12.2,17.4 7.8,-0.6 13.7,-7.7 14.9,-15 z m -13.2,2 c 0,0.2 -0.1,0.5 -0.2,0.7 -0.3,1.3 -1.3,2.5 -3.1,2.5 -3.3,0 -4.1,-3.9 -2.4,-5.7 0.3,-0.5 0.8,-0.9 1.4,-1.1 0.1,-0.1 0.2,-0.1 0.4,-0.1 0.3,-0.1 0.5,-0.1 0.8,-0.1 1.1,0 1.9,0.4 2.4,1.1 0.3,0.3 0.6,0.6 0.8,0.9 0.4,0.5 0.3,1.3 -0.1,1.8 z"
       id="path56" /><path
       d="m 597.03056,421.3 c 0,0 0,0 0,0 0,0 -0.1,0 0,0 -0.1,0 -0.1,0 0,0 z"
       id="path58" /><path
       d="m 597.63056,445.7 c 0.1,-0.1 0.1,-0.1 0,0 0.1,-0.1 0.1,-0.1 0,0 0.1,-0.1 0,0 0,0 z"
       id="path60" /><path
       d="m 496.43056,427 c 0,0 0,0 0,0 0,-0.1 0,-0.1 0,0 0,-0.1 0,0 0,0 z"
       id="path62" /><path
       d="m 594.83056,431.7 c 0,0 0.1,-0.1 0.1,-0.2 0.1,-0.3 0.2,-0.6 0.2,-0.8 0,0 0,0 0,0 -0.1,0.3 -0.2,0.6 -0.3,1 z"
       id="path64" /><path
       d="m 580.63056,456.6 c 0.2,-0.4 0.5,-0.7 0.7,-1 0,0 0,0 0,0 -0.3,0.3 -0.5,0.7 -0.7,1 z"
       id="path66" /><path
       d="m 591.63056,438.7 c 0.1,-0.1 0.1,-0.2 0.2,-0.3 0,0 0,-0.1 0,-0.1 0,0.2 -0.1,0.3 -0.2,0.4 z"
       id="path68" /><path
       d="m 609.93056,620.5 c 0,0 0.1,0 0,0 -0.9,-0.6 -1.9,-1 -2.9,-1.5 0.8,0.6 1.5,1.3 2.2,1.9 0.3,-0.1 0.5,-0.2 0.7,-0.4 z"
       id="path70" /><path
       d="m 591.63056,630.7 c 0.8,0.8 1.7,1.5 2.5,2.3 -0.6,-1 -1.2,-2.1 -1.8,-3.1 -0.2,0.3 -0.4,0.6 -0.7,0.8 z"
       id="path72" /><path
       d="m 659.23056,602.7 c -7.4,-3.8 -15.3,-6.7 -23.8,-8.6 -0.4,1 -0.9,2 -1.4,2.9 7,-0.6 15.6,2.1 21,4 1.4,0.6 2.8,1.2 4.2,1.7 z"
       id="path74" /><path
       d="m 629.23056,598.8 c 0.1,0 0.2,0.1 0.3,0.1 0,-0.1 0.1,-0.1 0.1,-0.2 -0.1,0 -0.3,0.1 -0.4,0.1 z"
       id="path76" /><path
       d="m 625.13056,609.1 c -0.8,0.9 -1.7,1.9 -2.6,2.9 8.6,2.6 17,6.5 24.8,11.4 -0.4,-1.5 -0.7,-3.1 -1.1,-4.6 -6.1,-4.5 -12.6,-8.6 -19.5,-11.7 -0.5,0.8 -1.1,1.4 -1.6,2 z"
       id="path78" /><path
       d="m 428.23619,599.7 c -0.0869,0 -0.21715,-0.1 -0.26058,-0.4 -1.04236,-6.5 -1.99786,-13.5 -2.82306,-20.9 -19.41393,47.2 -32.57371,110.5 -48.25252,164.3 -15.20107,52.1 -32.92117,102.2 -56.28737,134.6 -15.76568,21.8 -33.7898,34.4 -52.11794,37.3 -19.58766,3.1 -36.87344,-9.2 -55.59246,-18.7 -22.67131,-11.4 -46.99301,-24.5 -68.79568,1.2 -4.73405,5.6 -9.16407,12.4 -13.07292,20.5 6.7319,9.7 14.24557,16.4 22.06326,19.8 14.15871,6 27.01447,-1.2 40.78229,-8 26.23269,-12.9 54.37638,6.8 80.7828,10.2 22.45414,2.9 45.82035,-1.8 65.49487,-26.7 13.11635,-16.6 23.93082,-41.2 34.18068,-66.3 11.1185,-27.1 21.8461,-55 32.18283,-83.7 5.29865,-14.8 10.46702,-29.8 15.63538,-45 4.56032,-13.5 10.59731,-22.4 15.37479,-35.6 -7.38337,-25.6 -10.07613,-52.3 -9.29437,-82.6 z"
       id="path80"
       style="stroke-width:0.659027" /><path
       d="m 493.03056,763.9 c 0.2,3.2 0.3,6.4 0.3,9.6 0,-3.2 -0.1,-6.4 -0.3,-9.6 z"
       id="path86" /><path
       d="m 493.23056,795.9 c -0.1,6.3 -0.3,12.7 -0.2,19 -0.1,-6.3 0,-12.7 0.2,-19 z"
       id="path88" /><path
       d="m 518.53056,597.9 c 8.3,-4.2 18.3,-6.1 24.9,-13.2 0.4,-0.5 13.5,-21 6.6,-19.7 -0.1,0 -0.2,0 -0.2,-0.1 -2.1,1.5 -3,7.6 -3.8,9.3 -0.9,2.2 -2.2,4.9 -4,6.8 0.2,0.3 0.3,0.7 0,1 -1.6,1.6 -3.1,2.5 -4.9,2.7 0.1,0.1 0.3,0.2 0.4,0.3 0.2,0.1 0,0.4 -0.2,0.3 -8.9,-1.9 -22.3,-2.9 -29.2,4.6 -1.3,1.4 -5.9,8.5 0.1,8.2 1.5,0 3,-0.3 4.3,-0.9 2.6,-1 4.8,-2.4 7.2,-3.8 3.3,-1.9 6.7,-3.4 10.5,-2.6 0.8,0.2 0.6,1.2 0,1.4 -4.7,1.8 -8.9,4 -13.4,6.1 -2.7,1.2 -5.9,2.7 -8.9,2.3 -5.1,-0.8 -6.4,-5.6 -3.6,-9.8 3.8,-5.5 12.3,-9.1 20.3,-9.4 -6.5,-1.3 -12.4,-0.9 -20.1,1.4 -9.9,2.9 -20.6,3.9 -26.8,-5.4 -0.3,0.1 -0.6,0 -0.9,-0.2 -2.6,-2.2 -5,-4.1 -8,-5.2 6.3,6.8 13.4,12.5 19,19.8 0.1,-0.1 0.2,-0.1 0.4,-0.1 5.4,0 7.1,9.2 12.6,10.3 0.7,0.1 1.4,0.2 2,0.3 0.2,-0.5 0.7,-0.9 1.3,-0.5 0.5,0.3 1.1,0.7 1.5,1.1 3.1,0.7 5.5,2.1 5.9,6.3 0,0.2 -0.2,0.2 -0.3,0 -0.7,-2.5 -1.9,-3.7 -3.3,-4.3 1.8,1.9 3.2,4.2 4.4,6.5 -0.3,-5.6 1.5,-11.2 6.2,-13.5 z"
       id="path90" /><path
       d="m 645.23056,615.1 c -0.6,-2.5 -1.3,-4.9 -2,-7.4 -3.7,-2.6 -7.5,-4.9 -11.7,-6.6 -0.9,1.3 -1.9,2.6 -2.8,3.8 5.9,2.5 11.6,6.5 16.5,10.2 z"
       id="path92" /><path
       d="m 657.33056,845.7 c 0.7,0.4 1.3,0.7 1.9,1 -0.6,-0.3 -1.2,-0.7 -1.9,-1 z"
       id="path94" /><path
       d="m 857.33008,774.8 c -5.4,-1.4 -7.49997,1.3 -11.19997,3.8 -0.7,0.5 -2.5,0.3 -3.1,-0.2 -3.19997,-2.4 -6.09997,0 -9.09997,1.5 -10.69994,5.4 -19.19994,5.2 -24.79991,-6.1 0.2,1.4 0.4,2.8 0.7,4.1 3.1,15.6 10.29997,30.3 11.19997,46.3 3.69997,-5.3 7.49997,-10.5 11.89997,-15.4 9.79994,-11 19.09991,-22.1 27.29991,-34 -0.9,0.3 -1.7,0.3 -2.9,0 z"
       id="path96" /><path
       d="m 567.53056,1070 c 0.1,0.3 0.3,0.5 0.5,0.6 -0.2,-0.1 -0.4,-0.3 -0.5,-0.6 z"
       id="path98" /><path
       d="m 409.23056,710.2 c -5.4,5.4 -10.2,11.3 -14.8,17.4 4.6,-6.1 9.4,-12 14.8,-17.4 z"
       id="path100" /><path
       d="m 419.83056,700 c -3.6,3.3 -7.2,6.7 -10.7,10.2 3.6,-3.5 7.2,-6.9 10.7,-10.2 z"
       id="path102" /><path
       d="m 440.63056,687.2 c -0.6,-1 -1.2,-2 -1.9,-3 0.7,1 1.3,2 1.9,3 z"
       id="path104" /><path
       d="m 683.93056,1028.2 c 0.2,0 0.3,-0.1 0.4,-0.3 -0.1,0.1 -0.2,0.2 -0.4,0.3 z"
       id="path108" /><path
       d="m 696.83056,75.7 c -0.2,0.1 -0.5,-0.1 -0.4,-0.4 -0.1,0.2 0.1,0.4 0.4,0.4 z"
       id="path110" /><path
       d="m 441.93056,327.5 c 0,-0.5 0.1,-1 0.3,-1.4 -0.2,0.5 -0.3,1 -0.3,1.4 z"
       id="path112" /><path
       d="m 445.13056,323 c -0.8,0.5 -1.5,1.1 -2.1,1.8 0.6,-0.7 1.3,-1.3 2.1,-1.8 z"
       id="path114" /><path
       d="m 622.23056,203.3 c -4.8,4.5 -9.6,8.8 -14.6,13 5,-4.2 9.8,-8.6 14.6,-13 z"
       id="path116" /><path
       d="m 622.23056,203.3 c 4.3,-4.1 8.6,-8.2 12.9,-12.3 -4.3,4.1 -8.6,8.2 -12.9,12.3 z"
       id="path118" /><path
       d="m 501.63056,177.4 c 2.8,5.3 7.3,10.7 12,15.4 -4.7,-4.7 -9.2,-10.1 -12,-15.4 z"
       id="path120" /><path
       d="m 578.83056,226.7 c 0.7,0.1 1.5,0.2 2.2,0.4 -0.7,-0.2 -1.4,-0.4 -2.2,-0.4 z"
       id="path122" /><path
       d="m 408.83056,522.6 c 0.7,-2 1.5,-3.9 2.5,-5.8 -1,1.9 -1.8,3.8 -2.5,5.8 z"
       id="path132" /></g></svg>
