<?xml version="1.0" encoding="UTF-8" standalone="no"?>
<svg
   height="300px"
   width="300px"
   fill="#000000"
   version="1.1"
   viewBox="0 0 60 60"
   x="0px"
   y="0px"
   id="svg16"
   sodipodi:docname="converted(6).svg"
   inkscape:version="1.1 (c68e22c387, 2021-05-23)"
   xmlns:inkscape="http://www.inkscape.org/namespaces/inkscape"
   xmlns:sodipodi="http://sodipodi.sourceforge.net/DTD/sodipodi-0.dtd"
   xmlns="http://www.w3.org/2000/svg"
   xmlns:svg="http://www.w3.org/2000/svg">
  <defs
     id="defs20" />
  <sodipodi:namedview
     id="namedview18"
     pagecolor="#505050"
     bordercolor="#eeeeee"
     borderopacity="1"
     inkscape:pageshadow="0"
     inkscape:pageopacity="0"
     inkscape:pagecheckerboard="0"
     showgrid="false"
     inkscape:zoom="2.91"
     inkscape:cx="150"
     inkscape:cy="149.82818"
     inkscape:window-width="1920"
     inkscape:window-height="1011"
     inkscape:window-x="0"
     inkscape:window-y="0"
     inkscape:window-maximized="1"
     inkscape:current-layer="svg16" />
  <g
     fill="#000000"
     id="g14"
     style="fill:#808080;fill-opacity:1">
    <path
       d="M13.313,13.3584l1.55031e-07,-9.44318e-10c-2.13357,0.0129959 -3.8737,-1.70607 -3.8867,-3.83964c-0.00425027,-0.697777 0.180569,-1.38368 0.534829,-1.98485l-7.53387,-7.53391l-1.2959,1.29591l1.00227e-07,-1.0052e-07c-1.13135,1.13466 -1.13135,2.97081 -2.00454e-07,4.10547l16.2524,16.252l2.50313e-07,2.38961e-07c1.14878,1.09668 2.95669,1.09668 4.10547,-4.77922e-07l1.29541,-1.29547l-7.53369,-7.53412l2.34525e-07,-1.38485e-07c-0.587225,0.346751 -1.25604,0.531248 -1.93799,0.53461Z"
       transform="translate(1.71875, 35.4961)"
       id="path2"
       style="fill:#808080;fill-opacity:1" />
    <path
       d="M0,27.8415l7.53412,7.53412l2.17082e-07,-1.27896e-07c1.83831,-1.08306 4.20655,-0.470813 5.28961,1.3675c0.712983,1.21016 0.712982,2.71195 -2.55793e-07,3.92211l7.53369,7.53418l27.8418,-27.8418l-20.3573,-20.3576Z"
       transform="translate(5.56006, 6.24048)"
       id="path4"
       style="fill:#808080;fill-opacity:1" />
    <path
       d="M3.40448,3.40487l-6.45957e-08,6.45768e-08c0.73682,-0.736604 0.736996,-1.93105 0.000391559,-2.66787c-0.736604,-0.73682 -1.93105,-0.736996 -2.66787,-0.000391559c-0.73682,0.736604 -0.736996,1.93105 -0.000391559,2.66787c0.000130458,0.000130496 0.000260934,0.000260973 0.00039143,0.00039143l1.42018e-07,1.35667e-07c0.746268,0.712893 1.92121,0.712893 2.66748,-2.06757e-07Z"
       transform="translate(12.9608, 42.8969)"
       id="path6"
       style="fill:#808080;fill-opacity:1" />
    <path
       d="M22.3332,17.3487l-16.252,-16.252l-5.37989e-08,-5.13591e-08c-1.14878,-1.09668 -2.95669,-1.09668 -4.10547,1.02718e-07l-1.97578,1.97588l20.3572,20.3577l1.97607,-1.97608l8.72435e-08,-8.74466e-08c1.13183,-1.13446 1.13183,-2.971 -1.73918e-07,-4.10546Zm-17.3794,-13.8925l-1.65313e-08,4.12982e-08c-0.0487461,0.121777 -0.123965,0.231188 -0.22021,0.32031l2.25665e-08,-2.34266e-08c-0.375108,0.389405 -0.994868,0.400995 -1.38427,0.025887c-0.00878959,-0.00846688 -0.0174201,-0.0170974 -0.025887,-0.025887l4.48713e-08,4.40717e-08c-0.187704,-0.184359 -0.292386,-0.437111 -0.29,-0.7002l1.35796e-09,1.26278e-07c-0.00286111,-0.266057 0.10169,-0.522027 0.29,-0.71l2.44397e-08,-2.91077e-08c0.0428624,-0.0510491 0.0936296,-0.0948986 0.15037,-0.12988c0.0498,-0.03027 0.10986,-0.06055 0.16992,-0.09082l2.43108e-08,-8.83147e-09c0.0616502,-0.0223959 0.125232,-0.0390663 0.18994,-0.0498l-6.27141e-08,1.33825e-08c0.536149,-0.114409 1.06353,0.227479 1.17794,0.763628c0.0427042,0.200123 0.0225168,0.408554 -0.0577989,0.596762Zm2.71973,2.71973l-6.59834e-09,1.66389e-08c-0.0483281,0.121868 -0.123421,0.23132 -0.21973,0.32027l-2.83492e-08,2.89702e-08c-0.184564,0.188606 -0.436335,0.296406 -0.7002,0.2998l5.91608e-08,2.44064e-10c-0.134071,-0.000553099 -0.266692,-0.0277748 -0.39014,-0.08008l-1.72523e-08,-6.87136e-09c-0.121661,-0.0484561 -0.230933,-0.123532 -0.3198,-0.21972l-7.93589e-08,-7.80601e-08c-0.093222,-0.0916964 -0.167978,-0.200433 -0.22021,-0.32031l4.06786e-08,1.02375e-07c-0.0480037,-0.12081 -0.071729,-0.249896 -0.06982,-0.37988l-1.93391e-09,-2.4238e-07c-0.00106187,-0.133087 0.0226133,-0.265212 0.06982,-0.38965l-1.48626e-08,3.41107e-08c0.0522322,-0.119876 0.126988,-0.228613 0.22021,-0.32031l-5.77459e-08,5.73077e-08c0.236199,-0.234407 0.573602,-0.335831 0.8999,-0.27051l-2.75811e-10,-4.73497e-11c0.0647265,0.0111121 0.128304,0.0281093 0.18994,0.05078l3.4956e-08,1.56209e-08c0.0601235,0.0268676 0.117107,0.060272 0.16992,0.0996099l-3.28253e-09,-1.61994e-09c0.0582065,0.0287252 0.10951,0.0697024 0.15039,0.12012l-2.16682e-09,-2.0014e-09c0.0963141,0.088961 0.171407,0.198427 0.21973,0.32031l3.83642e-08,9.38659e-08c0.0505992,0.123801 0.0777534,0.255927 0.08008,0.38965l4.4377e-08,-4.24338e-06c-0.00136625,0.130669 -0.0285783,0.259776 -0.080068,0.37988Zm6.5874,7.12891l2.27303e-08,-2.27417e-08c-0.390285,0.390482 -1.02322,0.390641 -1.4137,0.000355645c-0.000118563,-0.000118503 -0.000237096,-0.000237036 -0.000355599,-0.000355599l-2.72168,-2.72168l-4.21563e-09,-4.21562e-09c-0.390482,-0.390482 -0.390482,-1.02358 8.43125e-09,-1.41406c0.390482,-0.390482 1.02358,-0.390482 1.41406,8.43125e-09l2.72168,2.72168l-5.3849e-09,-5.38243e-09c0.390474,0.390294 0.390619,1.02323 0.00032554,1.4137c-0.00010183,0.000101877 -0.000203682,0.000203732 -0.000305556,0.000305565Z"
       transform="translate(34.8162, 1.75386)"
       id="path8"
       style="fill:#808080;fill-opacity:1" />
    <path
       d="M10.707,0.28733c-0.00885,-0.00885 -0.021,-0.01147 -0.03009,-0.02l-1.8327e-09,-1.77958e-09c-0.0853335,-0.0828599 -0.18499,-0.149553 -0.29413,-0.19684l-0.00354,-0.00085c-0.00824,-0.00336 -0.017,-0.00323 -0.02527,-0.00641l-9.6136e-08,-3.60157e-08c-0.102234,-0.0383 -0.210134,-0.0592976 -0.31927,-0.06213c-0.0318,-0.0011 -0.06189,0.00275 -0.09369,0.0047l-1.56643e-08,1.30329e-09c-0.119994,0.00998366 -0.237795,0.0380089 -0.34943,0.08313l9.64555e-09,-4.12948e-09c-0.110775,0.0474254 -0.211979,0.114644 -0.29865,0.19836l-3,3l-9.83147e-09,9.87188e-09c-0.38968,0.391281 -0.388382,1.02437 0.00289872,1.41406c0.390153,0.388557 1.02103,0.38855 1.41117,-1.50424e-05l1.28223,-1.28125l1.44971e-07,-2.6552e-06c-0.231747,4.24453 -3.73838,7.56902 -7.98923,7.57425h-4.37114e-08c-0.552285,2.41411e-08 -1,0.447715 -1,1c2.41411e-08,0.552285 0.447715,1 1,1l5.61617e-07,-9.1115e-10c5.36392,-0.0087024 9.76647,-4.24623 9.98,-9.6059l1.313,1.3129l7.42723e-08,7.29389e-08c0.394002,0.386929 1.02707,0.381195 1.414,-0.0128073c0.381982,-0.388965 0.381982,-1.01223 -1.45878e-07,-1.40119Z"
       transform="translate(40, 38.0057)"
       id="path10"
       style="fill:#808080;fill-opacity:1" />
    <path
       d="M3.38198,12.707c0.009,0.009 0.02124,0.01166 0.03052,0.02026l-3.93944e-08,-3.82304e-08c0.0852278,0.0827095 0.184735,0.149295 0.2937,0.19653l0.00311,0.00061l8.4764e-08,3.48673e-08c0.372912,0.153396 0.801476,0.0676569 1.08667,-0.2174l3,-3l-1.12113e-08,1.14162e-08c0.386929,-0.394002 0.381195,-1.02707 -0.0128072,-1.414c-0.388966,-0.381983 -1.01223,-0.381982 -1.4012,2.34705e-06l-1.28174,1.28125l-8.89556e-08,1.63326e-06c0.231181,-4.2446 3.73785,-7.56933 7.98874,-7.57425l-4.37114e-08,-1.77636e-15c0.552285,2.41411e-08 1,-0.447715 1,-1c2.41411e-08,-0.552285 -0.447715,-1 -1,-1l-2.4362e-07,3.95241e-10c-5.36392,0.00870223 -9.76647,4.24623 -9.98,9.6059l-1.313,-1.3129l-9.07346e-09,-8.91058e-09c-0.394002,-0.386929 -1.02707,-0.381195 -1.414,0.0128072c-0.381982,0.388965 -0.381982,1.01223 1.78212e-08,1.40119Z"
       transform="translate(6.91102, 8)"
       id="path12"
       style="fill:#808080;fill-opacity:1" />
  </g>
</svg>
