<?xml version="1.0" encoding="UTF-8" standalone="no"?>
<svg
   height="300px"
   width="300px"
   fill="#000000"
   data-name="Layer 1"
   viewBox="0 0 64 64"
   x="0px"
   y="0px"
   version="1.1"
   id="svg12"
   sodipodi:docname="vocals.svg"
   inkscape:version="1.1 (c68e22c387, 2021-05-23)"
   xmlns:inkscape="http://www.inkscape.org/namespaces/inkscape"
   xmlns:sodipodi="http://sodipodi.sourceforge.net/DTD/sodipodi-0.dtd"
   xmlns:xlink="http://www.w3.org/1999/xlink"
   xmlns="http://www.w3.org/2000/svg"
   xmlns:svg="http://www.w3.org/2000/svg">
  <defs
     id="defs16">
    <linearGradient
       inkscape:collect="always"
       id="linearGradient972">
      <stop
         style="stop-color:#fa8d14;stop-opacity:1"
         offset="0"
         id="stop1721" />
      <stop
         style="stop-color:#b0177e;stop-opacity:1"
         offset="0.46355772"
         id="stop1982" />
      <stop
         style="stop-color:#115dcc;stop-opacity:1"
         offset="0.6922819"
         id="stop2624" />
      <stop
         style="stop-color:#10a358;stop-opacity:1"
         offset="1"
         id="stop1723" />
    </linearGradient>
    <linearGradient
       inkscape:collect="always"
       id="linearGradient864">
      <stop
         style="stop-color:#fa8d14;stop-opacity:1"
         offset="0"
         id="stop860" />
      <stop
         style="stop-color:#b0177e;stop-opacity:1"
         offset="1"
         id="stop862" />
    </linearGradient>
    <linearGradient
       inkscape:collect="always"
       xlink:href="#linearGradient864"
       id="linearGradient866"
       x1="1.6493548"
       y1="14.074677"
       x2="26.49"
       y2="14.074677"
       gradientUnits="userSpaceOnUse" />
    <linearGradient
       inkscape:collect="always"
       xlink:href="#linearGradient864"
       id="linearGradient912"
       x1="7.4871869"
       y1="7.0640545"
       x2="24.964502"
       y2="25.688135"
       gradientUnits="userSpaceOnUse" />
    <linearGradient
       inkscape:collect="always"
       xlink:href="#linearGradient864"
       id="linearGradient920"
       x1="0.079827659"
       y1="25.039524"
       x2="33.592442"
       y2="24.57122"
       gradientUnits="userSpaceOnUse" />
    <linearGradient
       inkscape:collect="always"
       xlink:href="#linearGradient972"
       id="linearGradient928"
       x1="-0.048800945"
       y1="34.889084"
       x2="64.078697"
       y2="35.169289"
       gradientUnits="userSpaceOnUse" />
  </defs>
  <sodipodi:namedview
     id="namedview14"
     pagecolor="#505050"
     bordercolor="#eeeeee"
     borderopacity="1"
     inkscape:pageshadow="0"
     inkscape:pageopacity="0"
     inkscape:pagecheckerboard="0"
     showgrid="false"
     inkscape:zoom="2.5784569"
     inkscape:cx="153.77414"
     inkscape:cy="137.67924"
     inkscape:window-width="1920"
     inkscape:window-height="1011"
     inkscape:window-x="0"
     inkscape:window-y="0"
     inkscape:window-maximized="1"
     inkscape:current-layer="svg12" />
  <title
     id="title2">Communication</title>
  <path
     d="M15.5,2.78a5.08,5.08,0,0,0-6.79.36L3.14,8.71a5.08,5.08,0,0,0-.36,6.79l8.89,11L26.49,11.67Z"
     id="path4"
     style="fill-opacity:1;fill:url(#linearGradient866)" />
  <rect
     x="9.08"
     y="19.76"
     width="24.29"
     height="2.94"
     rx="1.38"
     ry="1.38"
     transform="translate(-8.79 21.23) rotate(-45)"
     id="rect6"
     style="fill-opacity:1;fill:url(#linearGradient912)" />
  <polygon
     points="20.14 33.12 33.12 20.14 30.32 16.15 16.15 30.32 20.14 33.12"
     id="polygon8"
     style="fill-opacity:1;fill:url(#linearGradient920)" />
  <path
     d="M49.18,58.62a5.38,5.38,0,0,0,6.79.32l3.74,3.41,2.64-2.64L58.94,56a5.38,5.38,0,0,0-.32-6.79L33.94,21.67,21.67,33.94ZM39,41.58a1.18,1.18,0,0,1,0-1.66l1-1a1.18,1.18,0,0,1,1.66,0l4.78,4.78a1.18,1.18,0,0,1,0,1.66l-1,1a1.18,1.18,0,0,1-1.66,0Z"
     id="path10"
     style="fill-opacity:1;fill:url(#linearGradient928)" />
</svg>
