<?xml version="1.0" encoding="UTF-8" standalone="no"?>
<svg
   height="300px"
   width="300px"
   fill="#000000"
   viewBox="0 0 32 32"
   x="0px"
   y="0px"
   version="1.1"
   id="svg6"
   sodipodi:docname="wave.svg"
   inkscape:version="1.1 (c68e22c387, 2021-05-23)"
   xmlns:inkscape="http://www.inkscape.org/namespaces/inkscape"
   xmlns:sodipodi="http://sodipodi.sourceforge.net/DTD/sodipodi-0.dtd"
   xmlns:xlink="http://www.w3.org/1999/xlink"
   xmlns="http://www.w3.org/2000/svg"
   xmlns:svg="http://www.w3.org/2000/svg">
  <defs
     id="defs10">
    <linearGradient
       inkscape:collect="always"
       id="linearGradient3257">
      <stop
         style="stop-color:#fa8d14;stop-opacity:1"
         offset="0"
         id="stop3253" />
      <stop
         style="stop-color:#b0177e;stop-opacity:1"
         offset="0.46202219"
         id="stop3259" />
      <stop
         style="stop-color:#115dcc;stop-opacity:1"
         offset="0.64335191"
         id="stop3453" />
      <stop
         style="stop-color:#10a358;stop-opacity:1"
         offset="1"
         id="stop3255" />
    </linearGradient>
    <linearGradient
       inkscape:collect="always"
       id="linearGradient2918">
      <stop
         style="stop-color:#0000ff;stop-opacity:1;"
         offset="0"
         id="stop2956" />
      <stop
         style="stop-color:#0000ff;stop-opacity:0;"
         offset="1"
         id="stop2958" />
    </linearGradient>
    <linearGradient
       id="linearGradient2892"
       inkscape:swatch="solid">
      <stop
         style="stop-color:#0000ff;stop-opacity:1;"
         offset="0"
         id="stop2890" />
    </linearGradient>
    <linearGradient
       inkscape:collect="always"
       xlink:href="#linearGradient2918"
       id="linearGradient2920"
       x1="0.61000001"
       y1="16.21413"
       x2="31.389999"
       y2="16.21413"
       gradientUnits="userSpaceOnUse" />
    <linearGradient
       inkscape:collect="always"
       xlink:href="#linearGradient3257"
       id="linearGradient3089"
       gradientUnits="userSpaceOnUse"
       x1="0.61"
       y1="16.214131"
       x2="31.39"
       y2="16.214131" />
  </defs>
  <sodipodi:namedview
     id="namedview8"
     pagecolor="#505050"
     bordercolor="#eeeeee"
     borderopacity="1"
     inkscape:pageshadow="0"
     inkscape:pageopacity="0"
     inkscape:pagecheckerboard="0"
     showgrid="false"
     inkscape:zoom="2.91"
     inkscape:cx="82.302405"
     inkscape:cy="149.82818"
     inkscape:window-width="1920"
     inkscape:window-height="1011"
     inkscape:window-x="0"
     inkscape:window-y="0"
     inkscape:window-maximized="1"
     inkscape:current-layer="svg6" />
  <g
     id="g4"
     style="mix-blend-mode:normal;fill:url(#linearGradient2920);fill-opacity:1.0">
    <path
       d="m 31.39,17.26 a 1,1 0 0 1 -1,1 h -1.77 a 0.94,0.94 0 0 0 -0.94,0.94 v 5.05 a 2.76,2.76 0 0 1 -5.52,0 V 7.93 A 0.93,0.93 0 0 0 21.23,7 a 1,1 0 0 0 -1,0.93 v 13.25 a 2.66,2.66 0 1 1 -5.31,0 v -5.45 a 0.74,0.74 0 1 0 -1.47,0 v 8.16 a 2.61,2.61 0 0 1 -5.22,0 V 12.25 a 0.94,0.94 0 1 0 -1.87,0 V 15.6 A 2.94,2.94 0 0 1 3.43,18.54 H 1.61 a 1,1 0 1 1 0,-2 H 3.44 A 0.93,0.93 0 0 0 4.37,15.6 v -3.35 a 2.94,2.94 0 1 1 5.87,0 v 11.64 a 0.61,0.61 0 0 0 0.61,0.61 0.61,0.61 0 0 0 0.61,-0.61 v -8.16 a 2.74,2.74 0 1 1 5.47,0 v 5.45 a 0.66,0.66 0 1 0 1.31,0 V 7.93 a 3,3 0 0 1 5.92,0 v 16.32 a 0.76,0.76 0 0 0 1.52,0 V 19.2 a 2.94,2.94 0 0 1 2.94,-2.94 h 1.77 a 1,1 0 0 1 1,1 z"
       id="path2"
       style="fill:url(#linearGradient3089);fill-opacity:1"
       inkscape:export-filename="/home/ysomda/data/favicon.ico.png"
       inkscape:export-xdpi="96"
       inkscape:export-ydpi="96" />
  </g>
</svg>
